<?xml version="1.0" encoding="UTF-8" standalone="no"?>
<!-- Created with Inkscape (http://www.inkscape.org/) -->

<svg
   xmlns:dc="http://purl.org/dc/elements/1.1/"
   xmlns:cc="http://creativecommons.org/ns#"
   xmlns:rdf="http://www.w3.org/1999/02/22-rdf-syntax-ns#"
   xmlns:svg="http://www.w3.org/2000/svg"
   xmlns="http://www.w3.org/2000/svg"
   xmlns:sodipodi="http://sodipodi.sourceforge.net/DTD/sodipodi-0.dtd"
   xmlns:inkscape="http://www.inkscape.org/namespaces/inkscape"
   id="svg2"
   version="1.1"
   inkscape:version="0.48.4 r9939"
   width="438.10034"
   height="209.84578"
   xml:space="preserve"
   sodipodi:docname="concussion_smarts_final.svg"><metadata
     id="metadata8"><rdf:RDF><cc:Work
         rdf:about=""><dc:format>image/svg+xml</dc:format><dc:type
           rdf:resource="http://purl.org/dc/dcmitype/StillImage" /><dc:title /></cc:Work></rdf:RDF></metadata><defs
     id="defs6"><clipPath
       clipPathUnits="userSpaceOnUse"
       id="clipPath16"><path
         d="M 0,0 360,0 360,216 0,216 0,0 z"
         id="path18"
         inkscape:connector-curvature="0" /></clipPath><clipPath
       clipPathUnits="userSpaceOnUse"
       id="clipPath56"><path
         d="M 0,0 360,0 360,216 0,216 0,0 z"
         id="path58"
         inkscape:connector-curvature="0" /></clipPath></defs><sodipodi:namedview
     pagecolor="#ffffff"
     bordercolor="#666666"
     borderopacity="1"
     objecttolerance="10"
     gridtolerance="10"
     guidetolerance="10"
     inkscape:pageopacity="0"
     inkscape:pageshadow="2"
     inkscape:window-width="1366"
     inkscape:window-height="716"
     id="namedview4"
     showgrid="false"
     inkscape:zoom="0.80666667"
     inkscape:cx="16.10949"
     inkscape:cy="87.547554"
     inkscape:window-x="0"
     inkscape:window-y="0"
     inkscape:window-maximized="1"
     inkscape:current-layer="g10"
     fit-margin-top="2"
     fit-margin-left="2"
     fit-margin-right="2"
     fit-margin-bottom="2"
     borderlayer="true" /><g
     id="g10"
     inkscape:groupmode="layer"
     inkscape:label="concussion_smarts_final"
     transform="matrix(1.25,0,0,-1.25,-10.543402,257.29823)"><g
       id="g12"
       transform="translate(0.99173554,4.9586777)"><g
         id="g14"
         clip-path="url(#clipPath16)"><g
           id="g20"
           transform="translate(23.2503,62.0121)"><path
             d="m 0,0 c 0,0 8.046,17.905 8.689,26.688 0.644,8.784 -0.643,10.135 -12.873,30.743 -12.229,20.607 -12.873,53.715 19.31,69.93 32.183,16.216 75.631,5.068 80.78,-36.147 1.931,-13.851 -5.219,-11.714 8.69,-24.324 9.232,-9.011 -2.044,-10.024 -4.619,-14.754 -1.931,-2.533 -0.129,-4.391 0.676,-6.418 0.804,-2.027 -3.21,-3.21 -3.21,-3.21 0,0 -1.558,-1.033 0.507,-1.351 2.196,-0.338 2.872,-4.223 -0.507,-5.912 C 91.935,32.491 94.604,27.137 95.248,22.746 95.891,18.354 94.527,15.989 83.424,17.34 72.32,18.692 64.394,19.367 62.141,11.26 59.888,3.152 57.749,-4.956 57.749,-4.956 c 0,0 -1.351,-0.676 -15.202,-0.676 C 28.696,-5.632 -5.424,-8.841 0,0"
             style="fill:#2a3e92;fill-opacity:1;fill-rule:nonzero;stroke:none"
             id="path22"
             inkscape:connector-curvature="0" /></g><g
           id="g24"
           transform="translate(24.1739,62.6852)"><path
             d="m 0,0 c 2.996,6.364 5.693,12.954 7.716,19.693 1.658,5.522 2.644,11.7 0.6,17.257 -1.157,3.147 -2.932,6.061 -4.652,8.922 -2.952,4.912 -6.17,9.672 -9.043,14.63 -4.218,7.28 -6.622,15.632 -6.942,24.034 -1.601,42.042 53.371,59.556 85.797,42.945 7.936,-4.066 14.519,-10.314 18.909,-18.076 4.712,-8.331 5.995,-17.683 6.452,-27.092 0.142,-2.924 0.9,-5.408 2.494,-7.876 1.218,-1.885 2.685,-3.624 4.121,-5.345 1.921,-2.3 4.547,-4.242 5.923,-6.937 1.466,-2.871 -3.362,-4.801 -5.147,-5.961 -1.194,-0.775 -2.254,-1.661 -3.091,-2.818 -1.587,-2.196 -1.184,-4.341 0.009,-6.607 0.738,-1.403 1.456,-1.94 -0.288,-2.634 -0.562,-0.224 -1.158,-0.388 -1.749,-0.516 -1.193,-0.258 -1.375,-2.005 -0.336,-2.573 0.729,-0.398 1.557,-0.996 1.884,-1.785 0.599,-1.446 -3.364,-3.343 -4.108,-4.583 -2.074,-3.46 -0.279,-7.039 0.664,-10.555 0.596,-2.223 0.68,-4.937 -0.466,-6.991 -2.001,-3.584 -7.63,-2.756 -10.919,-2.301 -4.438,0.615 -8.825,1.539 -13.273,2.087 -3.569,0.44 -7.407,0.638 -10.732,-0.945 -3.529,-1.679 -4.066,-6.085 -4.941,-9.434 -0.761,-2.917 -1.468,-5.865 -1.997,-8.833 -0.317,-1.775 2.396,-2.534 2.714,-0.749 0.531,2.971 1.25,5.911 1.998,8.833 0.578,2.256 0.874,5.279 2.564,7.013 1.246,1.278 3.371,1.491 5.043,1.582 4.581,0.25 9.245,-0.847 13.734,-1.612 4.447,-0.758 9.27,-1.851 13.707,-0.525 6.101,1.823 6.478,8.634 4.955,13.784 -0.614,2.077 -1.874,4.571 -0.92,6.724 0.945,2.134 3.952,2.532 4.655,4.933 0.73,2.496 -1.041,4.64 -3.141,5.788 -0.112,-0.857 -0.225,-1.715 -0.336,-2.572 2.862,0.618 6.232,2.26 4.652,5.625 -0.627,1.336 -1.885,2.632 -1.629,4.228 0.122,0.763 1.029,1.636 1.588,2.14 1.204,1.083 2.746,1.819 4.102,2.692 2.476,1.593 4.475,3.766 3.669,6.896 -0.505,1.963 -2.103,3.631 -3.485,5.017 -2.234,2.241 -4.299,4.632 -6.181,7.186 -1.854,2.518 -2.788,4.865 -2.939,7.973 -0.217,4.477 -0.577,8.906 -1.426,13.317 -1.732,9.003 -5.938,17.406 -12.192,24.109 C 75.819,133.161 56.939,137.822 39.599,136.326 20.525,134.68 0.26,125.503 -9.499,108.34 -17.995,93.398 -16.299,74.666 -8.284,59.926 -3.953,51.96 2.33,44.725 5.602,36.202 7.833,30.387 6.15,23.917 4.317,18.245 2.462,12.507 0.137,6.877 -2.431,1.42 -3.2,-0.212 -0.773,-1.642 0,0"
             style="fill:#231f20;fill-opacity:1;fill-rule:nonzero;stroke:none"
             id="path26"
             inkscape:connector-curvature="0" /></g><g
           id="g28"
           transform="translate(52.5215,97.8785)"><path
             d="m 0,0 c 0,0 5.341,3.56 4.025,15.866 0,0 -20.434,-11.841 -28.793,11.998 0,0 -7.121,-1.084 -3.096,3.482 0,0 -2.786,-2.554 -4.334,1.162 -1.548,3.714 -1.858,4.024 0,5.263 0,0 -3.716,-0.155 -1.548,9.288 0,0 -3.096,9.598 1.857,11.455 0,0 -1.548,3.096 0.929,4.334 0,0 -0.619,4.335 2.167,7.431 2.787,3.096 3.096,4.025 4.335,4.334 0,0 -0.929,1.239 1.238,2.787 2.167,1.548 3.406,2.477 4.954,4.644 1.548,2.167 3.87,3.405 5.495,3.405 0,0 6.193,3.933 10.218,3.933 1.29,1.863 6.235,2.006 6.235,2.006 l 0.033,-0.366 c 0,0 3.406,2.786 7.121,-0.309 0,0 1.548,2.786 5.418,0.928 l 1.566,0.458 c 5.263,1.858 13.003,-0.619 14.396,-3.715 0,0 6.657,1.935 10.682,-5.882 0,0 0.619,3.715 5.573,-0.62 4.953,-4.334 5.263,-7.12 5.263,-10.216 0,0 5.882,-2.477 3.096,-8.05 0,0 1.857,0.31 2.476,-3.406 0.62,-3.715 2.168,-6.191 0,-9.907 -2.166,-3.715 -4.024,-6.501 -4.024,-6.501 l -0.483,0.16 c 0.929,-2.941 -1.238,-4.953 -5.882,-5.262 -4.644,-0.31 -5.883,-0.31 -5.883,-0.31 0,0 -3.405,-1.858 -4.953,1.548 0,0 -3.406,-2.477 -4.954,-0.929 0,0 0.31,-7.894 -6.192,-6.811 0,0 1.548,-9.442 -9.288,-8.05 0,0 0.31,-2.786 -2.476,-4.953 -2.787,-2.167 -3.406,-4.644 -4.025,-7.43 C 10.526,8.978 7.431,1.161 1.548,-3.096"
             style="fill:#ffffff;fill-opacity:1;fill-rule:nonzero;stroke:none"
             id="path30"
             inkscape:connector-curvature="0" /></g><g
           id="g32"
           transform="translate(53.0098,97.0433)"><path
             d="m 0,0 c 4.926,3.372 5.003,11.56 4.504,16.702 -0.069,0.712 -0.773,1.227 -1.456,0.835 -3.01,-1.732 -6.662,-2.663 -10.106,-2.799 -8.888,-0.352 -14.474,6.467 -17.266,14.218 -0.195,0.544 -0.635,0.756 -1.19,0.676 -0.202,-0.03 -1.22,-0.083 -1.714,-0.071 -1.739,0.043 -1.442,0.738 -0.44,1.936 0.796,0.953 -0.422,2.2 -1.368,1.369 -0.907,-0.797 -1.854,-0.671 -2.53,0.373 -0.572,0.883 -0.939,2.101 -1.288,3.101 -0.274,0.784 0.018,0.991 0.656,1.431 0.754,0.52 0.532,1.821 -0.489,1.803 -0.144,-0.003 -0.716,0.431 -0.954,1.067 -0.388,1.034 -0.325,2.206 -0.264,3.286 0.066,1.162 0.945,3.148 0.597,4.244 -0.943,2.972 -2.212,8.768 1.419,10.343 0.512,0.222 0.552,0.894 0.347,1.324 -0.513,1.079 -0.544,2.312 0.582,3.01 0.263,0.163 0.522,0.503 0.479,0.835 -0.262,2.037 0.209,4.105 1.227,5.872 0.761,1.321 2.051,2.474 3.03,3.649 0.434,0.521 0.862,1.11 1.535,1.312 0.572,0.171 0.93,0.885 0.578,1.421 -0.575,0.872 2.081,2.309 2.678,2.78 1.363,1.075 2.483,2.28 3.514,3.674 1.749,2.365 4.298,2.619 6.663,3.946 1.247,0.699 2.536,1.323 3.86,1.86 1.537,0.624 3.065,0.662 4.612,1.087 0.449,0.124 0.71,0.603 1.081,0.858 0.663,0.454 1.528,0.626 2.298,0.8 0.848,0.191 1.73,0.283 2.599,0.314 -0.323,0.323 -0.645,0.645 -0.968,0.968 0.011,-0.123 0.022,-0.245 0.033,-0.367 0.081,-0.889 0.972,-1.216 1.652,-0.684 1.656,1.295 4.136,0.893 5.948,-0.461 0.425,-0.317 1.078,-0.068 1.324,0.347 0.867,1.465 2.79,1.138 4.094,0.582 0.957,-0.409 2.451,0.429 3.395,0.675 3.534,0.924 10.321,0.061 12.221,-3.585 0.198,-0.381 0.69,-0.556 1.092,-0.445 4.154,1.155 7.757,-2.061 9.589,-5.437 0.381,-0.703 1.61,-0.6 1.768,0.231 0.466,2.454 4.594,-1.62 5.146,-2.143 2.522,-2.391 3.772,-4.992 3.79,-8.436 0.001,-0.31 0.176,-0.704 0.479,-0.835 2.795,-1.215 4.053,-3.867 2.749,-6.727 -0.266,-0.582 0.029,-1.552 0.835,-1.455 1.722,0.205 2.592,-7.297 2.625,-8.557 0.068,-2.523 -1.941,-4.945 -3.209,-6.99 -0.586,-0.945 -1.183,-1.885 -1.799,-2.811 0.364,0.148 0.728,0.296 1.093,0.444 -0.161,0.054 -0.322,0.107 -0.483,0.161 -0.715,0.237 -1.372,-0.508 -1.19,-1.19 1.25,-4.672 -6.703,-4.172 -9.469,-4.302 -2.085,-0.098 -4.215,-1.357 -5.481,1.022 -0.232,0.436 -0.906,0.644 -1.324,0.347 -0.862,-0.611 -2.752,-1.877 -3.781,-1.08 -0.614,0.476 -1.681,0.249 -1.652,-0.684 0.106,-3.347 -1.485,-6.34 -5.224,-5.843 -0.686,0.091 -1.018,-0.682 -0.933,-1.225 C 25.621,32.093 25.472,30.225 25.09,29.13 23.943,25.837 20.087,25.624 17.159,25.951 16.664,26.006 16.15,25.468 16.191,24.983 16.414,22.347 14.032,20.971 12.484,19.278 10.708,17.336 10.231,14.785 9.594,12.331 8.235,7.103 4.888,1.814 0.571,-1.426 c -0.985,-0.74 -0.022,-2.42 0.977,-1.671 4.608,3.459 7.792,8.544 9.624,13.962 1.1,3.251 1.357,6.124 4.194,8.481 1.619,1.344 2.946,3.442 2.76,5.637 -0.322,-0.322 -0.645,-0.645 -0.967,-0.967 3.676,-0.411 7.689,0.236 9.484,3.853 0.811,1.634 1.017,3.628 0.737,5.421 -0.311,-0.408 -0.622,-0.816 -0.933,-1.224 4.774,-0.634 7.296,3.428 7.159,7.778 -0.55,-0.228 -1.101,-0.456 -1.651,-0.684 1.916,-1.485 4.335,-0.492 6.126,0.778 -0.442,0.115 -0.883,0.231 -1.324,0.347 1.062,-1.996 2.79,-2.83 5.005,-2.374 0.446,0.092 1.738,0.357 0.839,0.347 0.696,0.008 1.393,0.049 2.088,0.084 4.094,0.205 12.235,0.434 10.555,6.713 -0.397,-0.397 -0.794,-0.794 -1.19,-1.19 0.161,-0.054 0.322,-0.107 0.482,-0.161 0.427,-0.141 0.861,0.095 1.093,0.445 2.357,3.548 5.849,7.685 5.167,12.2 -0.367,2.428 -0.721,5.627 -2.06,7.719 -0.476,0.744 -1.459,1.462 -2.395,1.351 0.279,-0.486 0.557,-0.971 0.836,-1.456 1.702,3.732 0.423,7.693 -3.443,9.373 0.159,-0.278 0.319,-0.557 0.479,-0.835 -0.026,4.897 -2.48,8.63 -6.364,11.573 -1.801,1.364 -5.711,3.006 -6.373,-0.48 0.59,0.077 1.179,0.154 1.769,0.231 -2.255,4.157 -6.772,7.718 -11.774,6.327 0.364,-0.148 0.728,-0.296 1.092,-0.444 -2.181,4.187 -9.091,5.336 -13.272,4.68 -1.158,-0.181 -2.255,-0.532 -3.377,-0.86 -0.564,-0.165 -2.087,0.565 -2.98,0.539 -1.342,-0.039 -2.738,-0.876 -3.422,-2.031 0.442,0.116 0.883,0.232 1.324,0.347 -2.522,1.884 -5.741,2.154 -8.293,0.158 0.55,-0.228 1.101,-0.456 1.651,-0.684 -0.011,0.122 -0.022,0.244 -0.033,0.367 -0.046,0.509 -0.405,0.987 -0.967,0.967 -1.045,-0.037 -2.088,-0.186 -3.113,-0.383 -0.678,-0.131 -1.359,-0.33 -1.99,-0.613 -0.339,-0.152 -1.304,-1.017 -1.606,-1.027 -3.349,-0.121 -6.776,-2.016 -9.605,-3.668 -0.853,-0.498 -1.831,-0.508 -2.916,-1.003 -2.055,-0.937 -3.208,-2.83 -4.625,-4.468 -1.387,-1.603 -7.03,-4.168 -5.121,-7.069 0.193,0.474 0.385,0.948 0.578,1.421 -0.775,-0.231 -1.348,-0.66 -1.9,-1.244 -1.18,-1.25 -2.475,-2.652 -3.446,-4.061 -1.456,-2.113 -2.197,-4.822 -1.866,-7.393 0.16,0.279 0.32,0.557 0.479,0.836 -2.068,-1.282 -2.268,-3.57 -1.276,-5.658 0.116,0.441 0.232,0.883 0.347,1.324 -4.592,-1.991 -3.491,-8.717 -2.308,-12.529 0.123,-0.396 -0.482,-2.021 -0.546,-2.567 -0.103,-0.878 -0.167,-1.746 -0.155,-2.63 0.016,-1.119 0.24,-2.246 0.766,-3.238 0.451,-0.849 1.424,-1.6 2.422,-1.582 -0.162,0.601 -0.325,1.202 -0.488,1.803 -2.852,-1.969 -1.346,-4.513 -0.062,-7.18 1.118,-2.322 3.832,-2.293 5.569,-0.765 -0.456,0.457 -0.912,0.913 -1.368,1.369 -1.166,-1.395 -2.496,-3.714 -0.244,-4.821 1.272,-0.626 2.919,-0.478 4.281,-0.279 -0.397,0.225 -0.794,0.45 -1.19,0.676 2.944,-8.176 8.568,-15.188 17.789,-15.635 4.176,-0.202 8.79,0.969 12.425,3.059 C 3.54,16.145 3.054,16.423 2.569,16.702 2.999,12.265 2.993,4.387 -0.977,1.67 -1.999,0.971 -1.033,-0.707 0,0"
             style="fill:#231f20;fill-opacity:1;fill-rule:nonzero;stroke:none"
             id="path34"
             inkscape:connector-curvature="0" /></g></g></g><text
       transform="scale(1,-1)"
       id="text36"
       x="141.74347"
       y="-121.84538"><tspan
         style="font-size:28px;font-variant:normal;font-weight:900;font-stretch:normal;writing-mode:lr-tb;fill:#2a3e92;fill-opacity:1;fill-rule:nonzero;stroke:none;font-family:DejaVu Sans;-inkscape-font-specification:DejaVu Sans"
         x="141.74347 162.74347 187.13147 210.23148 231.79147 254.13547 273.23148 292.60745 302.88345 327.27145"
         y="-121.84538"
         sodipodi:role="line"
         id="tspan38">CONCUSSION</tspan></text>
<text
       transform="scale(1,-1)"
       id="text44"
       x="137.03999"
       y="-61.373699"><tspan
         style="font-size:14px;font-variant:normal;font-weight:normal;font-stretch:normal;writing-mode:lr-tb;fill:#231f20;fill-opacity:1;fill-rule:nonzero;stroke:none;font-family:Gotham;-inkscape-font-specification:Gotham-Book"
         x="137.03999 147.82001 160.168 172.194 183.92599 196.386 206.858 212.332 225.632 238.092 250.552 260.61801 266.21799 276.578 287.358 298.88 310.78 316.254 327.98599 338.76599"
         y="-61.373699"
         sodipodi:role="line"
         id="tspan46">EDUCATIONAL SERVICES</tspan></text>
<text
       transform="scale(1,-1)"
       id="text48"
       x="175.10609"
       y="-39.760201"><tspan
         style="font-size:14px;font-style:italic;font-variant:normal;font-weight:normal;font-stretch:normal;writing-mode:lr-tb;fill:#231f20;fill-opacity:1;fill-rule:nonzero;stroke:none;font-family:Gotham Rounded Book;-inkscape-font-specification:GothamRounded-BookItalic"
         x="175.10609 182.3161 193.16609 202.5881 212.02409 224.7361 229.77609 236.2301 245.6521 254.7381 259.77811 269.2421 278.14609 286.8541 293.30811 301.0921 305.7261"
         y="-39.760201"
         sodipodi:role="line"
         id="tspan50">“Know the Facts!”</tspan></text>
<g
       id="g52"><g
         id="g54"
         clip-path="url(#clipPath56)"><g
           id="g60"
           transform="translate(56.2691,141.9963)"><path
             d="m 0,0 c -0.962,3.072 -2.276,5.922 -4.074,8.589 -1.691,2.509 -2.854,5.493 -2.905,8.535 -0.147,8.798 15.583,11.38 19.689,4.46 1.548,-2.61 1.425,-6.084 0.841,-8.947 C 12.859,9.24 10.686,7.239 8.998,4.349 7.62,1.989 7.899,0.383 7.764,-2.17 7.612,-5.049 5.379,-5.23 3.046,-5.384 0.139,-5.575 0.134,-2.469 0.037,-0.275 c -0.059,1.33 -2.129,1.335 -2.07,0 0.193,-4.39 1.291,-7.564 6.151,-7.091 4.516,0.44 6.022,2.825 5.696,7.352 -0.1,1.397 0.333,2.226 1.338,3.946 1.091,1.868 2.641,3.216 3.47,5.237 1.508,3.672 1.873,7.924 0.642,11.726 C 12.385,29.788 -2.152,29.352 -7.17,22.718 -12.943,15.087 -4.207,6.513 -1.996,-0.55 -1.598,-1.819 0.4,-1.278 0,0"
             style="fill:#231f20;fill-opacity:1;fill-rule:nonzero;stroke:none"
             id="path62"
             inkscape:connector-curvature="0" /></g><g
           id="g64"
           transform="translate(57.4328,131.9151)"><path
             d="M 0,0 C 0.823,-0.684 1.827,-1.185 2.887,-1.351 4.969,-1.676 6.561,-0.465 7.582,1.257 8.265,2.408 6.475,3.449 5.795,2.302 5.101,1.132 4.204,0.406 2.821,0.775 2.443,0.876 2.1,1.062 1.767,1.263 1.6,1.365 1.313,1.589 1.464,1.464 0.445,2.311 -1.028,0.854 0,0"
             style="fill:#231f20;fill-opacity:1;fill-rule:nonzero;stroke:none"
             id="path66"
             inkscape:connector-curvature="0" /></g><g
           id="g68"
           transform="translate(46.4319,148.6631)"><path
             d="m 0,0 c -1.725,-1.553 -3.45,-3.105 -5.175,-4.658 -0.995,-0.894 0.474,-2.353 1.463,-1.463 1.725,1.553 3.45,3.105 5.175,4.658 C 2.458,-0.569 0.989,0.89 0,0"
             style="fill:#231f20;fill-opacity:1;fill-rule:nonzero;stroke:none"
             id="path70"
             inkscape:connector-curvature="0" /></g><g
           id="g72"
           transform="translate(44.9211,159.3164)"><path
             d="m 0,0 -5.52,0 c -1.335,0 -1.335,-2.07 0,-2.07 l 5.52,0 C 1.335,-2.07 1.335,0 0,0"
             style="fill:#231f20;fill-opacity:1;fill-rule:nonzero;stroke:none"
             id="path74"
             inkscape:connector-curvature="0" /></g><g
           id="g76"
           transform="translate(48.6716,168.2418)"><path
             d="M 0,0 C -1.495,1.495 -2.99,2.99 -4.485,4.485 -5.43,5.43 -6.893,3.966 -5.948,3.022 -4.453,1.526 -2.959,0.031 -1.463,-1.463 -0.519,-2.408 0.945,-0.945 0,0"
             style="fill:#231f20;fill-opacity:1;fill-rule:nonzero;stroke:none"
             id="path78"
             inkscape:connector-curvature="0" /></g><g
           id="g80"
           transform="translate(60.9637,171.2189)"><path
             d="m 0,0 0,6.9 c 0,1.335 -2.07,1.335 -2.07,0 l 0,-6.9 C -2.07,-1.335 0,-1.335 0,0"
             style="fill:#231f20;fill-opacity:1;fill-rule:nonzero;stroke:none"
             id="path82"
             inkscape:connector-curvature="0" /></g><g
           id="g84"
           transform="translate(71.5279,167.6409)"><path
             d="M 0,0 C 1.61,1.437 3.22,2.875 4.83,4.313 5.828,5.203 4.358,6.662 3.367,5.776 1.757,4.339 0.146,2.901 -1.463,1.463 -2.461,0.573 -0.992,-0.886 0,0"
             style="fill:#231f20;fill-opacity:1;fill-rule:nonzero;stroke:none"
             id="path86"
             inkscape:connector-curvature="0" /></g><g
           id="g88"
           transform="translate(74.0736,157.5914)"><path
             d="m 0,0 6.9,0 c 1.335,0 1.335,2.07 0,2.07 L 0,2.07 C -1.335,2.07 -1.335,0 0,0"
             style="fill:#231f20;fill-opacity:1;fill-rule:nonzero;stroke:none"
             id="path90"
             inkscape:connector-curvature="0" /></g><g
           id="g92"
           transform="translate(70.5819,147.0271)"><path
             d="m 0,0 c 1.782,-1.61 3.565,-3.22 5.348,-4.83 0.987,-0.892 2.456,0.567 1.463,1.463 -1.782,1.61 -3.565,3.221 -5.348,4.83 C 0.476,2.356 -0.993,0.896 0,0"
             style="fill:#231f20;fill-opacity:1;fill-rule:nonzero;stroke:none"
             id="path94"
             inkscape:connector-curvature="0" /></g><g
           id="g96"
           transform="translate(56.9962,139.4789)"><path
             d="M 0,0 C 2.811,0.037 5.541,0.543 8.112,1.694 9.329,2.238 8.275,4.021 7.068,3.481 4.843,2.486 2.423,2.102 0,2.07 -1.333,2.052 -1.335,-0.018 0,0"
             style="fill:#231f20;fill-opacity:1;fill-rule:nonzero;stroke:none"
             id="path98"
             inkscape:connector-curvature="0" /></g><g
           id="g100"
           transform="translate(59.2016,140.5839)"><path
             d="m 0,0 c 0.607,3.046 0.784,6.221 0.756,9.319 -0.021,2.362 -0.077,6.58 -2.408,8.033 -2.034,1.268 -4.819,0.142 -4.441,-2.416 0.572,-3.869 5.741,-4.715 8.647,-3.757 C 2.118,11.512 1.681,11.845 1.245,12.177 1.694,8.769 2.074,5.39 3.007,2.07 3.367,0.786 5.364,1.332 5.002,2.62 4.12,5.763 3.74,8.948 3.315,12.177 c -0.083,0.626 -0.604,1.231 -1.31,0.998 -1.849,-0.609 -3.678,-0.558 -5.126,0.85 -0.985,0.959 -0.888,2.688 0.495,1.45 1.277,-1.143 1.219,-3.955 1.294,-5.487 C -1.181,6.884 -1.387,3.602 -1.996,0.55 -2.256,-0.753 -0.261,-1.309 0,0"
             style="fill:#231f20;fill-opacity:1;fill-rule:nonzero;stroke:none"
             id="path102"
             inkscape:connector-curvature="0" /></g></g></g><text
       xml:space="preserve"
       style="font-size:32px;font-style:normal;font-weight:normal;line-height:125%;letter-spacing:0px;word-spacing:0px;fill:#000000;fill-opacity:1;stroke:none;font-family:Sans"
       x="130.14215"
       y="-78.122314"
       id="text3248"
       sodipodi:linespacing="125%"
       transform="scale(1,-1)"><tspan
         sodipodi:role="line"
         id="tspan3250"
         x="130.14215"
         y="-78.122314"
         style="font-size:50px;font-weight:bold;fill:#2a3e92;fill-opacity:1;-inkscape-font-specification:DejaVu Sans Bold;font-family:DejaVu Sans;font-style:normal;font-stretch:normal;font-variant:normal">SMARTS</tspan></text>
</g></svg>