<?xml version="1.0" encoding="UTF-8" standalone="no"?>
<!-- Created with Inkscape (http://www.inkscape.org/) -->

<svg
   xmlns:dc="http://purl.org/dc/elements/1.1/"
   xmlns:cc="http://creativecommons.org/ns#"
   xmlns:rdf="http://www.w3.org/1999/02/22-rdf-syntax-ns#"
   xmlns:svg="http://www.w3.org/2000/svg"
   xmlns="http://www.w3.org/2000/svg"
   xmlns:sodipodi="http://sodipodi.sourceforge.net/DTD/sodipodi-0.dtd"
   xmlns:inkscape="http://www.inkscape.org/namespaces/inkscape"
   width="744.09448819"
   height="1052.3622047"
   id="svg6176"
   version="1.1"
   inkscape:version="0.48.4 r9939"
   sodipodi:docname="kits.png">
  <defs
     id="defs6178" />
  <sodipodi:namedview
     id="base"
     pagecolor="#ffffff"
     bordercolor="#666666"
     borderopacity="1.0"
     inkscape:pageopacity="0.0"
     inkscape:pageshadow="2"
     inkscape:zoom="0.35"
     inkscape:cx="375"
     inkscape:cy="477.14286"
     inkscape:document-units="px"
     inkscape:current-layer="layer1"
     showgrid="false"
     inkscape:window-width="454"
     inkscape:window-height="421"
     inkscape:window-x="26"
     inkscape:window-y="26"
     inkscape:window-maximized="0" />
  <metadata
     id="metadata6181">
    <rdf:RDF>
      <cc:Work
         rdf:about="">
        <dc:format>image/svg+xml</dc:format>
        <dc:type
           rdf:resource="http://purl.org/dc/dcmitype/StillImage" />
        <dc:title></dc:title>
      </cc:Work>
    </rdf:RDF>
  </metadata>
  <g
     inkscape:label="Layer 1"
     inkscape:groupmode="layer"
     id="layer1">
    <g
       id="g6419"
       transform="matrix(2.8726215,0,0,2.8726215,-760.41808,-944.48004)">
      <g
         transform="matrix(1.25,0,0,-1.25,341.71125,472.44343)"
         id="g3020">
        <path
           id="path3022"
           style="fill:#ffce54;fill-opacity:1;fill-rule:nonzero;stroke:none"
           d="M 0,0 -26.63,-47.936 0,-95.87 l 53.262,0 26.63,47.934 L 53.262,0 0,0 z"
           inkscape:connector-curvature="0" />
      </g>
      <g
         transform="matrix(1.25,0,0,-1.25,370.76163,514.19883)"
         id="g3780">
        <path
           inkscape:connector-curvature="0"
           id="path3782"
           style="fill:#48cfad;fill-opacity:1;fill-rule:nonzero;stroke:none"
           d="m 0,0 -8.085,-17.488 c -0.117,-0.258 -0.426,-0.372 -0.683,-0.254 l -5.51,2.537 c -0.257,0.119 -0.37,0.427 -0.252,0.683 l 8.084,17.488 c 0.119,0.258 0.427,0.371 0.683,0.253 L -0.252,0.683 C 0.004,0.563 0.118,0.257 0,0 m -13.28,-27.032 c -0.651,-1.417 -2.327,-2.035 -3.741,-1.383 -1.416,0.65 -2.035,2.325 -1.382,3.739 0.651,1.416 2.327,2.035 3.742,1.384 1.413,-0.651 2.033,-2.327 1.381,-3.74 M 1.479,1.908 -6.012,5.358 C -6.627,5.641 -7.359,5.369 -7.643,4.756 l -15.695,-34.095 c -0.284,-0.613 -0.013,-1.346 0.602,-1.629 l 7.491,-3.451 c 0.614,-0.281 1.349,-0.011 1.631,0.604 L 2.082,0.278 c 0.067,0.15 0.105,0.305 0.109,0.458 l 0,0.043 c 0.003,0.47 -0.26,0.92 -0.712,1.129" />
      </g>
      <g
         transform="matrix(1.25,0,0,-1.25,370.44662,513.34553)"
         id="g3784">
        <path
           inkscape:connector-curvature="0"
           id="path3786"
           style="fill:#ffffff;fill-opacity:1;fill-rule:nonzero;stroke:none"
           d="M 0,0 -5.511,2.536 C -5.767,2.654 -6.075,2.541 -6.194,2.283 l -8.084,-17.488 c -0.118,-0.256 -0.005,-0.564 0.252,-0.683 l 5.51,-2.537 c 0.257,-0.118 0.566,-0.004 0.683,0.254 L 0.252,-0.683 C 0.37,-0.426 0.256,-0.119 0,0" />
      </g>
      <g
         transform="matrix(1.25,0,0,-1.25,384.72275,534.61993)"
         id="g3788">
        <path
           inkscape:connector-curvature="0"
           id="path3790"
           style="fill:#fc6e51;fill-opacity:1;fill-rule:nonzero;stroke:none"
           d="m 0,0 c 0,-0.287 -0.235,-0.523 -0.525,-0.523 l -6.186,0 C -7,-0.523 -7.235,-0.287 -7.235,0 l 0,19.399 c 0,0.29 0.235,0.527 0.524,0.527 l 6.186,0 C -0.235,19.926 0,19.689 0,19.399 L 0,0 z m -3.624,-13.482 c -1.559,0 -2.821,1.26 -2.821,2.819 0,1.558 1.262,2.82 2.821,2.82 1.557,0 2.82,-1.262 2.82,-2.82 0,-1.559 -1.263,-2.819 -2.82,-2.819 m 4.124,35.28 -8.249,0 c -0.676,0 -1.229,-0.552 -1.229,-1.228 l 0,-3.454 0,-0.043 0,-34.037 c 0,-0.675 0.553,-1.228 1.229,-1.228 l 8.249,0 c 0.675,0 1.229,0.553 1.229,1.228 l 0,37.534 c 0,0.676 -0.554,1.228 -1.229,1.228" />
      </g>
      <g
         transform="matrix(1.25,0,0,-1.25,373.50087,513.22463)"
         id="g3792">
        <path
           inkscape:connector-curvature="0"
           id="path3794"
           style="fill:#4c4c4c;fill-opacity:1;fill-rule:nonzero;stroke:none"
           d="M 0,0 0,-0.043 0,0 z" />
      </g>
      <g
         transform="matrix(1.25,0,0,-1.25,398.1615,534.61993)"
         id="g3796">
        <path
           inkscape:connector-curvature="0"
           id="path3798"
           style="fill:#4c4c4c;fill-opacity:1;fill-rule:nonzero;stroke:none"
           d="m 0,0 c 0,-0.287 -0.234,-0.523 -0.524,-0.523 l -6.187,0 c -0.29,0 -0.524,0.236 -0.524,0.523 l 0,19.399 c 0,0.29 0.234,0.527 0.524,0.527 l 6.187,0 C -0.234,19.926 0,19.689 0,19.399 L 0,0 z m -3.67,-13.482 c -1.558,0 -2.82,1.26 -2.82,2.819 0,1.558 1.262,2.82 2.82,2.82 1.559,0 2.82,-1.262 2.82,-2.82 0,-1.559 -1.261,-2.819 -2.82,-2.819 m 4.124,35.28 -8.249,0 c -0.675,0 -1.227,-0.552 -1.227,-1.228 l 0,-37.534 c 0,-0.675 0.552,-1.228 1.227,-1.228 l 8.249,0 c 0.676,0 1.23,0.553 1.23,1.228 l 0,37.534 c 0,0.676 -0.554,1.228 -1.23,1.228" />
      </g>
      <g
         transform="matrix(1.25,0,0,-1.25,384.066,509.71263)"
         id="g3800">
        <path
           inkscape:connector-curvature="0"
           id="path3802"
           style="fill:#ffffff;fill-opacity:1;fill-rule:nonzero;stroke:none"
           d="M 0,0 -6.186,0 C -6.475,0 -6.71,-0.236 -6.71,-0.526 l 0,-19.4 c 0,-0.287 0.235,-0.523 0.524,-0.523 l 6.186,0 c 0.29,0 0.525,0.236 0.525,0.523 l 0,19.4 C 0.525,-0.236 0.29,0 0,0" />
      </g>
      <g
         transform="matrix(1.25,0,0,-1.25,397.506,509.71263)"
         id="g3804">
        <path
           inkscape:connector-curvature="0"
           id="path3806"
           style="fill:#ffffff;fill-opacity:1;fill-rule:nonzero;stroke:none"
           d="m 0,0 -6.187,0 c -0.29,0 -0.524,-0.236 -0.524,-0.526 l 0,-19.4 c 0,-0.287 0.234,-0.523 0.524,-0.523 l 6.187,0 c 0.29,0 0.524,0.236 0.524,0.523 l 0,19.4 C 0.524,-0.236 0.29,0 0,0" />
      </g>
      <g
         transform="matrix(1.25,0,0,-1.25,403.85411,416.44406)"
         id="g3080">
        <path
           id="path3082"
           style="fill:#fc6e51;fill-opacity:1;fill-rule:nonzero;stroke:none"
           d="M 0,0 -26.63,-47.935 0,-95.869 l 53.262,0 26.63,47.934 L 53.262,0 0,0 z"
           inkscape:connector-curvature="0" />
      </g>
      <g
         transform="matrix(1.25,0,0,-1.25,418.12049,470.45894)"
         id="g4232">
        <path
           inkscape:connector-curvature="0"
           id="path4234"
           style="fill:#ffce54;fill-opacity:1;fill-rule:nonzero;stroke:none"
           d="m 0,0 6.964,0 c 0,0.282 0,0.556 -0.002,0.833 L 0,0.833 0,0 z" />
      </g>
      <g
         transform="matrix(1.25,0,0,-1.25,422.47111,444.13944)"
         id="g4236">
        <path
           inkscape:connector-curvature="0"
           id="path4238"
           style="fill:#545355;fill-opacity:1;fill-rule:nonzero;stroke:none"
           d="m 0,0 c -1.23,0 -2.046,-1.526 -2.574,-4.275 l 5.151,0 C 2.046,-1.526 1.233,0 0,0" />
      </g>
      <g
         transform="matrix(1.25,0,0,-1.25,418.13023,467.28031)"
         id="g4240">
        <path
           inkscape:connector-curvature="0"
           id="path4242"
           style="fill:#ffce54;fill-opacity:1;fill-rule:nonzero;stroke:none"
           d="M 0,0 6.945,0 C 6.942,0.238 6.942,0.476 6.941,0.71 l -6.935,0 C 0.004,0.476 0.003,0.238 0,0" />
      </g>
      <g
         transform="matrix(1.25,0,0,-1.25,421.63248,504.90606)"
         id="g4244">
        <path
           inkscape:connector-curvature="0"
           id="path4246"
           style="fill:#ffce54;fill-opacity:1;fill-rule:nonzero;stroke:none"
           d="m 0,0 c 0,0.316 0.295,0.569 0.657,0.569 0.364,0 0.658,-0.253 0.658,-0.569 0,-0.236 -0.17,-0.441 -0.411,-0.525 l 0,-3.321 C 1.653,-1.892 3.102,-0.47 3.102,-0.47 2.368,0.802 2.059,4.935 2.059,4.935 l -2.803,0 c 0,0 -0.311,-4.133 -1.044,-5.405 0,0 1.449,-1.423 2.198,-3.377 l 0,3.321 C 0.172,-0.441 0,-0.236 0,0" />
      </g>
      <g
         transform="matrix(1.25,0,0,-1.25,426.79723,465.67994)"
         id="g4248">
        <path
           inkscape:connector-curvature="0"
           id="path4250"
           style="fill:#545355;fill-opacity:1;fill-rule:nonzero;stroke:none"
           d="m 0,0 c -0.059,5.01 -0.263,9.143 -0.734,12.102 l -5.452,0 C -6.654,9.143 -6.857,5.01 -6.92,0 L 0,0 z" />
      </g>
      <g
         transform="matrix(1.25,0,0,-1.25,419.31311,487.05318)"
         id="g4252">
        <path
           inkscape:connector-curvature="0"
           id="path4254"
           style="fill:#545355;fill-opacity:1;fill-rule:nonzero;stroke:none"
           d="m 0,0 c 0.123,-2.848 0.499,-8.545 0.499,-8.545 l 4.025,0 c 0,0 0.377,5.697 0.502,8.545 0.242,5.508 0.217,12.532 0.217,12.532 l -5.462,0 C -0.219,12.532 -0.242,5.508 0,0" />
      </g>
      <g
         transform="matrix(1.25,0,0,-1.25,428.66973,452.00194)"
         id="g4256">
        <path
           inkscape:connector-curvature="0"
           id="path4258"
           style="fill:#545355;fill-opacity:1;fill-rule:nonzero;stroke:none"
           d="m 0,0 0,-5.812 c -0.341,-0.259 -0.813,-0.736 -0.813,-1.376 0,-0.659 0.673,-2.162 0.673,-2.162 0.128,-0.278 0.25,-0.527 0.633,-0.527 0.271,0 0.492,0.19 0.492,0.427 l 0,9.45 c 0,0.666 -0.236,1.186 -0.707,1.545 -0.772,0.591 -1.874,0.482 -1.92,0.476 -0.007,0 -0.016,-0.002 -0.023,-0.004 0.043,-0.257 0.093,-0.543 0.138,-0.842 l 10e-4,0 c 0.009,0 0.721,0.064 1.154,-0.272 C -0.125,0.712 0,0.409 0,0" />
      </g>
      <path
         inkscape:connector-curvature="0"
         id="path4260"
         style="fill:#ffce54;fill-opacity:1;fill-rule:nonzero;stroke:none"
         d="m 453.40486,444.13981 -2.07375,0 0,54.335 2.07375,0 0,-54.335 z" />
      <path
         inkscape:connector-curvature="0"
         id="path4262"
         style="fill:#ffce54;fill-opacity:1;fill-rule:nonzero;stroke:none"
         d="m 459.33736,444.13981 -2.07375,0 0,54.335 2.07375,0 0,-54.335 z" />
      <g
         transform="matrix(1.25,0,0,-1.25,457.26348,504.62406)"
         id="g4264">
        <path
           inkscape:connector-curvature="0"
           id="path4266"
           style="fill:#ffffff;fill-opacity:1;fill-rule:nonzero;stroke:none"
           d="m 0,0 1.752,4.19 -6.649,0 1.81,-4.686 0.318,-0.825 1.062,-2.751 1.152,2.751 L 0,0 z" />
      </g>
      <path
         inkscape:connector-curvature="0"
         id="path4268"
         style="fill:#ffce54;fill-opacity:1;fill-rule:nonzero;stroke:none"
         d="m 456.26236,444.13981 -1.85875,0 0,54.335 1.85875,0 0,-54.335 z" />
      <g
         transform="matrix(1.25,0,0,-1.25,442.54799,499.56418)"
         id="g4270">
        <path
           inkscape:connector-curvature="0"
           id="path4272"
           style="fill:#ffce54;fill-opacity:1;fill-rule:nonzero;stroke:none"
           d="m 0,0 -4.952,0 0,-4.078 2.103,-4.042 0.748,0 L 0,-4.078 0,0 z" />
      </g>
      <g
         transform="matrix(1.25,0,0,-1.25,443.95549,451.01806)"
         id="g4274">
        <path
           inkscape:connector-curvature="0"
           id="path4276"
           style="fill:#545355;fill-opacity:1;fill-rule:nonzero;stroke:none"
           d="m 0,0 0,-9.615 c 0,-0.295 0.277,-0.533 0.618,-0.533 0.34,0 0.615,0.238 0.615,0.533 l 0,9.615 c 0,0.888 -0.42,1.368 -0.772,1.617 -0.624,0.436 -1.418,0.445 -1.839,0.41 l -4.617,0 0,-1.068 4.767,0 c 0,0 0.654,0.028 0.916,-0.177 C -0.111,0.628 0,0.372 0,0" />
      </g>
      <path
         inkscape:connector-curvature="0"
         id="path4278"
         style="fill:#545355;fill-opacity:1;fill-rule:nonzero;stroke:none"
         d="m 443.36111,485.13981 -7.81375,0 0,13.35625 7.81375,0 0,-13.35625 z" />
      <path
         inkscape:connector-curvature="0"
         id="path4280"
         style="fill:#545355;fill-opacity:1;fill-rule:nonzero;stroke:none"
         d="m 442.42736,450.85731 -5.94875,0 0,33.19875 5.94875,0 0,-33.19875 z" />
      <path
         inkscape:connector-curvature="0"
         id="path4282"
         style="fill:#ffffff;fill-opacity:1;fill-rule:nonzero;stroke:none"
         d="m 441.76611,443.46481 -4.6225,0 0,4.00375 4.6225,0 0,-4.00375 z" />
      <path
         inkscape:connector-curvature="0"
         id="path4284"
         style="fill:#545355;fill-opacity:1;fill-rule:nonzero;stroke:none"
         d="m 443.54486,499.42856 -0.6825,0 0,2.005 0.6825,0 0,-2.005 z" />
    </g>
  </g>
</svg>
